<svg width="1219" height="1850" fill="none" xmlns="http://www.w3.org/2000/svg"><g filter="url(#a)"><path d="M489.708 547.874c15.414 72.351 31.994 172.169 26.505 310.97C497.632 1328.72 276.877 1373.33 40.64 1651.79.33 1699.3-33.736 1776.17 69.206 1813.83c156.901 57.41 66.97 11.48 31.89-28.7-42.845-49.08-26.621-109.77 194.987-139.58M489.708 547.874c-9.738-38.849-40.906-91.645-97.709-146.172-144.784-138.985-179.648-80.537-196.96 25.058-20.327 123.983 61.585 195.786 61.585 49.48 0-137.13-93.8-166.811-173.318-34.863-66.138 109.748 87.393 63.756 123.202-39.675 43.377-125.29 95.491-85.607 121.114-73.086 33.377 16.31 109.162 72.79 116.165 84.127m45.921 135.131c-13.506-63.393-30.33-105.782-45.921-135.131m0 0c-15.794-29.732-30.322-46.082-38.851-57.328-73.808-97.33-142.093-142.592-239.235-167.331-128.026-32.603-118.337 95.28-2.877 105.96 108.846 10.069 193.62-66.302 84.391-160.138-68.088-58.494-165.427-12.466-58.019 43.151 87.664 45.393 113.162 61.37 228.241 162.536 53.045 46.631 145.395 172.723 58.605-30.164C408.755 152.135 365.36 116.366 346.728 98.873c-55.421-52.035-81.562 40.501 23.702 85.122 105.263 44.621 137.501-12.898 101.08-101.094-39.038-94.535-122.59-94.472-66.574 65.885 23.962 68.595 165.215 547.592 168.004 360.043 2.788-187.548 42.757-269.754 67.853-317.861 25.096-48.108 55.143-84.102 84.002-108.067 57.511-47.759 196.637-16.58 10.108 101.792-205.996 130.726-185.779-60.594-111.189-135.194 75.587-75.598 139.073-65.19 58.906 60.308-125.483 196.434-79.008 476.064-61.231 500.117 17.776 24.054 25.792-26.829 73.198-133.684 84.871-191.303 242.72-269.3 280.713-285.336 37.99-16.036 107.7-18.162 41.13 51.657-121.645 127.589-235.623-7.321-151.622-93.775 51.34-52.838 186.832-34.339 67.609 54.162-165.58 122.912-231.788 263.947-254.921 390.865m0 0c27.202-72.178 75.849-214.598 216.02-177.494 141.994 37.587 167.974 141.201 48.028 98.144-162.877-58.469-192.112-204.641 16.705-154.525 177.781 42.668 91.881 77.263-64.733 60.557-119.588-12.756-232.48 190.024-224.25 367.518m8.23-194.2c-12.948 71.041-12.4 137.659-8.23 194.2m0 0c2.533 34.339 7.241 64.878 9.397 90.601C714 1300.22 857.297 1355.64 973.5 1451.22c74.77 61.5 145.12 100.96 195.96 137.2 56.71 40.41 85.06 75.55-38.8 174.24-68.46 54.56-139.583 93.59-45.89 65.78 47.84-14.2 138.26-50.77 120.16-118.23-13.49-50.3-97.18-80.12-117.64-87.76-20.45-7.63-93.096-28.66-134.291-34.03m0 27.3c-29.878-61.65-132.806-99.14-177.182-127.71-57.155-36.79-84.113-66.29-122.818-128.29-59.078-94.64-43.073-276.68-105.011-69.32-16.852 56.42-57.779 125.34-87.513 162.9-67.297 85-129.453 43.46-153.978 110.91-25.112 69.05 109.056 105.45-50.85 257.16-41.08 38.97 98.494-10.21 133.616-100.22 23.711-60.76 78.032-99.01 243.737-105.43 81.447-3.16 151.102 2.76 203.453 12.52 151.867 28.31 241.797 80.67 129.546 146.48-233.477 136.86 41.521-46.5-13-159Z" stroke="#B6B6B6" stroke-width="2" stroke-linecap="round" shape-rendering="crispEdges"/></g><defs><filter id="a" x=".184" y=".891" width="1218.65" height="1848.95" filterUnits="userSpaceOnUse" color-interpolation-filters="sRGB"><feFlood flood-opacity="0" result="BackgroundImageFix"/><feColorMatrix in="SourceAlpha" values="0 0 0 0 0 0 0 0 0 0 0 0 0 0 0 0 0 0 127 0" result="hardAlpha"/><feOffset dy="8"/><feComposite in2="hardAlpha" operator="out"/><feColorMatrix values="0 0 0 0 0.202946 0 0 0 0 0.117772 0 0 0 0 0.313672 0 0 0 0.08 0"/><feBlend in2="BackgroundImageFix" result="effect1_dropShadow_260_3188"/><feBlend in="SourceGraphic" in2="effect1_dropShadow_260_3188" result="shape"/></filter></defs></svg>