<svg width="131" height="28" fill="none" xmlns="http://www.w3.org/2000/svg"><path d="M.52 27.038c.025-.785.038-1.685.038-2.698.025-1.039.038-2.153.038-3.344V6.252c0-1.115-.013-2.166-.038-3.154V.324l7.22-.076c.203 1.064.405 2.166.608 3.306.203 1.115.418 2.255.646 3.42.228 1.165.443 2.318.646 3.458.228 1.14.443 2.242.646 3.306.101.557.203 1.102.304 1.634.101.507.19 1 .266 1.482.101.481.19.95.266 1.406.101.43.19.836.266 1.216a65.898 65.898 0 0 0 .608-3.154c.101-.481.203-.937.304-1.368.101-.456.19-.887.266-1.292.203-1.064.393-2.052.57-2.964.203-.912.393-1.85.57-2.812.177-.988.38-2.065.608-3.23.228-1.19.481-2.571.76-4.142h7.296a128.2 128.2 0 0 0-.076 2.242v15.048c.025 1.292.038 2.52.038 3.686.025 1.165.038 2.23.038 3.192.025.937.038 1.735.038 2.394L17.126 27v-.76c.025-.33.038-.71.038-1.14V10.736c-.127.633-.279 1.33-.456 2.09-.152.735-.304 1.495-.456 2.28-.152.785-.317 1.596-.494 2.432a385.5 385.5 0 0 0-.456 2.318 380.928 380.928 0 0 1-.912 4.56c-.152.735-.291 1.444-.418 2.128l-5.244-.228c-.177-.887-.355-1.723-.532-2.508-.177-.81-.342-1.596-.494-2.356-.152-.76-.304-1.482-.456-2.166-.152-.71-.291-1.38-.418-2.014a94.092 94.092 0 0 0-.456-2.09 38.544 38.544 0 0 0-.418-1.976c-.127-.659-.253-1.292-.38-1.9v3.344a85.3 85.3 0 0 1 .038 2.622v2.356c.025.785.038 1.558.038 2.318v3.876c.025.507.038.912.038 1.216H.52Zm27.978.266c.051-.912.076-2.191.076-3.838.026-1.672.013-3.458-.038-5.358l5.396.38v2.47c0 .76.013 1.47.038 2.128l.076 1.938c.026.633.064 1.28.114 1.938l-5.662.342ZM22.608.058h5.89c.127.71.28 1.52.456 2.432.178.912.355 1.862.532 2.85.203.963.406 1.9.608 2.812l.76 3.306.494 2.09c.127-.456.266-.975.418-1.558l.494-1.976c.178-.71.355-1.444.532-2.204.127-.608.266-1.216.418-1.824.152-.633.292-1.254.418-1.862a59.46 59.46 0 0 0 .418-1.786c.152-.608.292-1.19.418-1.748l5.7.342a38.316 38.316 0 0 1-.76 2.128c-.278.785-.582 1.66-.912 2.622l-.988 3.04a303.702 303.702 0 0 1-1.634 5.13 680.177 680.177 0 0 1-1.482 4.674 144.93 144.93 0 0 0-.988 3.306l-4.294-.038a94.842 94.842 0 0 0-.722-2.47c-.253-.912-.532-1.875-.836-2.888-.304-1.039-.62-2.103-.95-3.192l-.988-3.268a111.04 111.04 0 0 0-.798-2.736l-.798-2.622c-.253-.861-.494-1.672-.722-2.432L22.608.058Z" fill="#46295A"/><path d="M50.067 27.192a148.424 148.424 0 0 0-.704-3.552 1101.4 1101.4 0 0 1-.768-3.744 244.8 244.8 0 0 0-.8-3.84l-.512-2.432c-.17-.832-.341-1.643-.512-2.432a494.28 494.28 0 0 0-.896-4.736l-1.568-1.92 3.456-.064c.107.661.235 1.408.384 2.24.17.832.341 1.739.512 2.72.192.96.395 1.963.608 3.008.213 1.024.427 2.07.64 3.136.299 1.408.597 2.805.896 4.192.32 1.387.619 2.699.896 3.936.299 1.237.565 2.347.8 3.328l-2.432.16Zm-8.288-5.344V19.64l8.192.16v1.792l-8.192.256Zm0 4.992-2.24-.032c.235-.939.48-2.016.736-3.232.277-1.216.565-2.507.864-3.872l.896-4.16c.32-1.408.619-2.784.896-4.128.277-1.344.533-2.603.768-3.776l.608-3.104 3.456-.064-1.696 2.176c-.213.96-.437 1.952-.672 2.976a204.897 204.897 0 0 1-.672 3.104 796.525 796.525 0 0 0-.64 3.104c-.256 1.28-.523 2.55-.8 3.808a553.593 553.593 0 0 1-.768 3.712c-.235 1.195-.48 2.357-.736 3.488Zm13.857.192c.021-.704.032-1.483.032-2.336.021-.853.032-1.75.032-2.688.021-.96.032-1.941.032-2.944v-9.28c0-.981-.01-1.92-.032-2.816 0-.896-.01-1.707-.032-2.432l3.296-.064c.15.683.32 1.45.512 2.304.192.853.405 1.77.64 2.752.235.96.47 1.952.704 2.976l.768 3.072c.213.853.416 1.696.608 2.528.213.81.416 1.61.608 2.4.192.768.373 1.504.544 2.208.192.683.363 1.312.512 1.888.17-.597.341-1.248.512-1.952.192-.704.384-1.45.576-2.24.192-.81.384-1.643.576-2.496.213-.853.427-1.717.64-2.592a330.2 330.2 0 0 1 .704-3.008l.672-2.88c.235-.939.448-1.803.64-2.592.192-.81.363-1.525.512-2.144h3.552c0 .597-.01 1.29-.032 2.08 0 .768-.01 1.61-.032 2.528v12.128c.021 1.024.032 2.016.032 2.976.021.939.043 1.824.064 2.656L69.94 27v-2.368c.021-.768.032-1.493.032-2.176v-5.408c.021-.533.032-1.035.032-1.504v-5.056c0-.768-.01-1.525-.032-2.272a91.904 91.904 0 0 0-.608 2.304c-.192.747-.384 1.504-.576 2.272l-.608 2.432-.608 2.368a137.084 137.084 0 0 1-1.44 5.696 672.98 672.98 0 0 0-.896 3.488l-2.784-.096c-.299-1.152-.587-2.25-.864-3.296a7672.526 7672.526 0 0 1-1.408-5.76c-.213-.896-.427-1.76-.64-2.592-.192-.81-.395-1.6-.608-2.368a56.401 56.401 0 0 0-.608-2.24 49.744 49.744 0 0 0-.608-2.112v1.344c.021.683.032 1.525.032 2.528v5.504c.021.725.032 1.472.032 2.24.021.768.032 1.547.032 2.336v2.4c.021.79.032 1.579.032 2.368h-2.208Zm19.65.224c.235-.939.49-2.048.768-3.328.277-1.301.565-2.677.864-4.128.299-1.45.597-2.87.896-4.256l.864-4.064c.277-1.323.533-2.56.768-3.712.235-1.152.437-2.165.608-3.04l3.776-.256c.15.875.33 1.91.544 3.104.235 1.173.48 2.443.736 3.808.277 1.365.544 2.763.8 4.192.277 1.408.544 2.784.8 4.128.277 1.323.555 2.57.832 3.744.277 1.173.533 2.25.768 3.232l-2.432.064a174.21 174.21 0 0 0-.672-3.552l-.704-3.584a174.21 174.21 0 0 0-.672-3.552c-.15-.768-.31-1.547-.48-2.336-.17-.79-.341-1.568-.512-2.336a78.93 78.93 0 0 0-.48-2.336c-.17-.768-.33-1.515-.48-2.24-.213.939-.448 1.91-.704 2.912-.235 1.003-.47 2.027-.704 3.072a191.733 191.733 0 0 0-.608 3.04c-.235 1.28-.49 2.57-.768 3.872a611.822 611.822 0 0 1-.768 3.84 195.322 195.322 0 0 1-.768 3.552l-2.272.16Zm2.368-5.344V20.12l8.192-.48v2.208l-8.192.064ZM101.303 27h-1.472c-.49-.021-.992-.032-1.504-.032-.49-.021-.981-.032-1.472-.032-.49-.021-.992-.032-1.504-.032h-1.376c-.47 0-.95.01-1.44.032-.47 0-.917.01-1.344.032h-1.12l-.288-2.176c.384-.81.8-1.675 1.248-2.592.448-.917.907-1.867 1.376-2.848l1.472-2.944a495.72 495.72 0 0 0 1.728-3.552 195.624 195.624 0 0 0 1.568-3.264c.47-1.003.864-1.867 1.184-2.592h-.992a16.936 16.936 0 0 0-1.056-.032h-.992c-.555 0-1.13.01-1.728.032-.576 0-1.12.01-1.632.032-.49 0-.907.01-1.248.032l.032-2.24a43.6 43.6 0 0 0 1.024.064h2.816a35.414 35.414 0 0 1 1.472-.032 48.787 48.787 0 0 1 1.664-.032 36.898 36.898 0 0 1 1.536-.032 42.55 42.55 0 0 1 1.696-.032l.096 2.304c-.384.79-.853 1.739-1.408 2.848a526.79 526.79 0 0 1-1.728 3.488l-1.856 3.712a191.727 191.727 0 0 0-1.472 3.008c-.47.96-.896 1.845-1.28 2.656a74.51 74.51 0 0 0-.896 2.016h3.616a51.272 51.272 0 0 1 1.76-.032 46.757 46.757 0 0 1 1.728-.032 48.518 48.518 0 0 1 1.792-.032V27Zm7.578.16c-1.024 0-1.877-.192-2.56-.576a4.355 4.355 0 0 1-1.6-1.632c-.405-.725-.715-1.579-.928-2.56a26.453 26.453 0 0 1-.32-2.016 37.215 37.215 0 0 1-.128-2.304 96.395 96.395 0 0 1-.032-2.496c0-.533.011-1.067.032-1.6.021-.533.053-1.056.096-1.568.043-.533.096-1.045.16-1.536.085-.512.181-1.003.288-1.472.363-1.43.971-2.613 1.824-3.552.875-.939 2.123-1.408 3.744-1.408 1.045 0 1.899.224 2.56.672.661.427 1.184 1.024 1.568 1.792.405.747.704 1.61.896 2.592.192.917.309 1.91.352 2.976a51.83 51.83 0 0 1 .096 3.168c0 .939-.032 1.856-.096 2.752a22.505 22.505 0 0 1-.256 2.496c-.107.79-.267 1.525-.48 2.208-.405 1.237-1.013 2.23-1.824 2.976-.811.725-1.941 1.088-3.392 1.088Zm.096-1.952c.619 0 1.131-.16 1.536-.48.405-.32.736-.768.992-1.344.277-.597.491-1.29.64-2.08a19.7 19.7 0 0 0 .288-2.688c.064-.981.096-2.027.096-3.136 0-.939-.021-1.824-.064-2.656a23.225 23.225 0 0 0-.16-2.272c-.171-1.323-.491-2.357-.96-3.104-.448-.768-1.141-1.152-2.08-1.152-.939 0-1.664.395-2.176 1.184-.491.768-.843 1.781-1.056 3.04-.064.384-.128.8-.192 1.248a24.22 24.22 0 0 0-.096 1.344c-.021.448-.043.917-.064 1.408v1.44c0 1.088.021 2.112.064 3.072.043.939.128 1.792.256 2.56.128.747.309 1.397.544 1.952.256.533.576.95.96 1.248.405.277.896.416 1.472.416Zm10.097-20.736h3.712c.17.704.373 1.483.608 2.336.234.853.48 1.76.736 2.72a713.436 713.436 0 0 0 1.632 5.888c.32 1.067.618 2.101.896 3.104.298 1.003.576 1.93.832 2.784l.672 2.176v-1.984c0-.683-.011-1.376-.032-2.08v-4.384c0-.683-.011-1.376-.032-2.08v-2.176c0-.725-.011-1.45-.032-2.176V6.36c0-.747-.011-1.493-.032-2.24h2.4a594.777 594.777 0 0 0-.128 4.928c0 .939-.011 1.93-.032 2.976v9.28c.021.981.032 1.93.032 2.848.021.917.042 1.77.064 2.56l-3.584.256c-.214-.81-.448-1.664-.704-2.56-.235-.917-.491-1.867-.768-2.848l-.832-2.944a663.262 663.262 0 0 0-.832-2.976 142.41 142.41 0 0 0-.64-2.112 83.306 83.306 0 0 0-.576-2.016 63.249 63.249 0 0 0-.576-1.824 41.809 41.809 0 0 0-.512-1.664v3.616c.021.661.032 1.365.032 2.112v4.352c.021.683.032 1.387.032 2.112v2.208c.021.747.032 1.504.032 2.272 0 .768.01 1.536.032 2.304l-2.304-.032V24.6c.021-.853.032-1.76.032-2.72.021-.96.032-1.952.032-2.976v-3.072c0-1.067-.011-2.112-.032-3.136 0-1.045-.011-2.059-.032-3.04 0-.981-.011-1.91-.032-2.784-.022-.875-.043-1.675-.064-2.4Z" fill="#67705C"/></svg>