<svg width="81" height="57" fill="none" xmlns="http://www.w3.org/2000/svg"><mask id="a" fill="#fff"><path d="M.455 56.02c.052-1.617.078-3.47.078-5.558.052-2.14.078-4.437.078-6.89V13.195c0-2.296-.026-4.462-.078-6.498V.982l14.85-.156c.417 2.192.834 4.462 1.25 6.81.417 2.297.86 4.646 1.33 7.047.468 2.4.911 4.776 1.328 7.125.469 2.348.912 4.619 1.329 6.81.208 1.15.416 2.271.625 3.367.208 1.044.39 2.062.547 3.054.208.991.39 1.957.547 2.896.208.888.39 1.723.547 2.506a136.547 136.547 0 0 0 1.25-6.498c.21-.992.418-1.932.626-2.819.208-.94.39-1.827.547-2.662.417-2.192.808-4.227 1.172-6.107.417-1.878.808-3.81 1.173-5.793a436.64 436.64 0 0 1 1.25-6.655c.47-2.453.99-5.297 1.563-8.533h15.006a264.603 264.603 0 0 0-.156 4.619v31.003c.052 2.662.078 5.193.078 7.594.052 2.401.078 4.593.078 6.577.053 1.93.079 3.575.079 4.932l-10.942-.157v-1.566c.052-.678.078-1.46.078-2.348V22.434c-.26 1.305-.573 2.74-.938 4.306-.313 1.513-.625 3.08-.938 4.697a287.346 287.346 0 0 1-1.016 5.01 784.856 784.856 0 0 0-.938 4.777 778.798 778.798 0 0 1-1.876 9.395c-.312 1.513-.599 2.975-.86 4.384l-10.785-.47c-.365-1.827-.73-3.55-1.094-5.167-.365-1.67-.704-3.288-1.016-4.854a215.716 215.716 0 0 0-.938-4.463c-.313-1.461-.6-2.844-.86-4.15a194.814 194.814 0 0 0-.938-4.305 79.564 79.564 0 0 0-.86-4.071 260.99 260.99 0 0 0-.781-3.915V30.498c.052 1.67.078 3.47.078 5.402v4.854c.052 1.618.078 3.21.078 4.776v7.985c.052 1.044.079 1.88.079 2.506H.454Z"/><path d="M57.006 56.569c.104-1.88.156-4.515.156-7.908.052-3.444.026-7.124-.078-11.039l11.098.783v5.09c0 1.565.026 3.026.078 4.383.052 1.357.105 2.688.157 3.993.052 1.305.13 2.636.234 3.993l-11.645.705ZM44.892.434h12.114c.26 1.462.573 3.132.938 5.01.364 1.88.73 3.837 1.094 5.872.417 1.984.834 3.915 1.25 5.794.574 2.505 1.095 4.776 1.564 6.811l1.016 4.306c.26-.94.547-2.01.86-3.21l1.015-4.07c.365-1.462.73-2.976 1.095-4.542.26-1.252.547-2.505.86-3.758.312-1.304.599-2.583.859-3.836.313-1.252.6-2.479.86-3.68.312-1.252.599-2.453.86-3.6L81 2.234a78.906 78.906 0 0 1-1.563 4.384 510.589 510.589 0 0 0-1.876 5.402c-.625 1.931-1.303 4.02-2.032 6.263a626.291 626.291 0 0 1-3.36 10.57c-1.095 3.497-2.111 6.707-3.049 9.63a294.337 294.337 0 0 0-2.032 6.81l-8.832-.078c-.416-1.513-.912-3.21-1.485-5.089a302.723 302.723 0 0 0-1.72-5.95 779.92 779.92 0 0 0-1.953-6.576l-2.032-6.733a229.127 229.127 0 0 0-1.641-5.637c-.573-1.879-1.12-3.68-1.642-5.402a960.784 960.784 0 0 0-1.485-5.01c-.52-1.619-.99-3.08-1.407-4.385Z"/></mask><path d="M.455 56.02c.052-1.617.078-3.47.078-5.558.052-2.14.078-4.437.078-6.89V13.195c0-2.296-.026-4.462-.078-6.498V.982l14.85-.156c.417 2.192.834 4.462 1.25 6.81.417 2.297.86 4.646 1.33 7.047.468 2.4.911 4.776 1.328 7.125.469 2.348.912 4.619 1.329 6.81.208 1.15.416 2.271.625 3.367.208 1.044.39 2.062.547 3.054.208.991.39 1.957.547 2.896.208.888.39 1.723.547 2.506a136.547 136.547 0 0 0 1.25-6.498c.21-.992.418-1.932.626-2.819.208-.94.39-1.827.547-2.662.417-2.192.808-4.227 1.172-6.107.417-1.878.808-3.81 1.173-5.793a436.64 436.64 0 0 1 1.25-6.655c.47-2.453.99-5.297 1.563-8.533h15.006a264.603 264.603 0 0 0-.156 4.619v31.003c.052 2.662.078 5.193.078 7.594.052 2.401.078 4.593.078 6.577.053 1.93.079 3.575.079 4.932l-10.942-.157v-1.566c.052-.678.078-1.46.078-2.348V22.434c-.26 1.305-.573 2.74-.938 4.306-.313 1.513-.625 3.08-.938 4.697a287.346 287.346 0 0 1-1.016 5.01 784.856 784.856 0 0 0-.938 4.777 778.798 778.798 0 0 1-1.876 9.395c-.312 1.513-.599 2.975-.86 4.384l-10.785-.47c-.365-1.827-.73-3.55-1.094-5.167-.365-1.67-.704-3.288-1.016-4.854a215.716 215.716 0 0 0-.938-4.463c-.313-1.461-.6-2.844-.86-4.15a194.814 194.814 0 0 0-.938-4.305 79.564 79.564 0 0 0-.86-4.071 260.99 260.99 0 0 0-.781-3.915V30.498c.052 1.67.078 3.47.078 5.402v4.854c.052 1.618.078 3.21.078 4.776v7.985c.052 1.044.079 1.88.079 2.506H.454Z" fill="#fff"/><path d="M57.006 56.569c.104-1.88.156-4.515.156-7.908.052-3.444.026-7.124-.078-11.039l11.098.783v5.09c0 1.565.026 3.026.078 4.383.052 1.357.105 2.688.157 3.993.052 1.305.13 2.636.234 3.993l-11.645.705ZM44.892.434h12.114c.26 1.462.573 3.132.938 5.01.364 1.88.73 3.837 1.094 5.872.417 1.984.834 3.915 1.25 5.794.574 2.505 1.095 4.776 1.564 6.811l1.016 4.306c.26-.94.547-2.01.86-3.21l1.015-4.07c.365-1.462.73-2.976 1.095-4.542.26-1.252.547-2.505.86-3.758.312-1.304.599-2.583.859-3.836.313-1.252.6-2.479.86-3.68.312-1.252.599-2.453.86-3.6L81 2.234a78.906 78.906 0 0 1-1.563 4.384 510.589 510.589 0 0 0-1.876 5.402c-.625 1.931-1.303 4.02-2.032 6.263a626.291 626.291 0 0 1-3.36 10.57c-1.095 3.497-2.111 6.707-3.049 9.63a294.337 294.337 0 0 0-2.032 6.81l-8.832-.078c-.416-1.513-.912-3.21-1.485-5.089a302.723 302.723 0 0 0-1.72-5.95 779.92 779.92 0 0 0-1.953-6.576l-2.032-6.733a229.127 229.127 0 0 0-1.641-5.637c-.573-1.879-1.12-3.68-1.642-5.402a960.784 960.784 0 0 0-1.485-5.01c-.52-1.619-.99-3.08-1.407-4.385Z" fill="#fff"/><path d="M.455 56.02c.052-1.617.078-3.47.078-5.558.052-2.14.078-4.437.078-6.89V13.195c0-2.296-.026-4.462-.078-6.498V.982l14.85-.156c.417 2.192.834 4.462 1.25 6.81.417 2.297.86 4.646 1.33 7.047.468 2.4.911 4.776 1.328 7.125.469 2.348.912 4.619 1.329 6.81.208 1.15.416 2.271.625 3.367.208 1.044.39 2.062.547 3.054.208.991.39 1.957.547 2.896.208.888.39 1.723.547 2.506a136.547 136.547 0 0 0 1.25-6.498c.21-.992.418-1.932.626-2.819.208-.94.39-1.827.547-2.662.417-2.192.808-4.227 1.172-6.107.417-1.878.808-3.81 1.173-5.793a436.64 436.64 0 0 1 1.25-6.655c.47-2.453.99-5.297 1.563-8.533h15.006a264.603 264.603 0 0 0-.156 4.619v31.003c.052 2.662.078 5.193.078 7.594.052 2.401.078 4.593.078 6.577.053 1.93.079 3.575.079 4.932l-10.942-.157v-1.566c.052-.678.078-1.46.078-2.348V22.434c-.26 1.305-.573 2.74-.938 4.306-.313 1.513-.625 3.08-.938 4.697a287.346 287.346 0 0 1-1.016 5.01 784.856 784.856 0 0 0-.938 4.777 778.798 778.798 0 0 1-1.876 9.395c-.312 1.513-.599 2.975-.86 4.384l-10.785-.47c-.365-1.827-.73-3.55-1.094-5.167-.365-1.67-.704-3.288-1.016-4.854a215.716 215.716 0 0 0-.938-4.463c-.313-1.461-.6-2.844-.86-4.15a194.814 194.814 0 0 0-.938-4.305 79.564 79.564 0 0 0-.86-4.071 260.99 260.99 0 0 0-.781-3.915V30.498c.052 1.67.078 3.47.078 5.402v4.854c.052 1.618.078 3.21.078 4.776v7.985c.052 1.044.079 1.88.079 2.506H.454Z" stroke="#46295A" stroke-width="2.868" mask="url(#a)"/><path d="M57.006 56.569c.104-1.88.156-4.515.156-7.908.052-3.444.026-7.124-.078-11.039l11.098.783v5.09c0 1.565.026 3.026.078 4.383.052 1.357.105 2.688.157 3.993.052 1.305.13 2.636.234 3.993l-11.645.705ZM44.892.434h12.114c.26 1.462.573 3.132.938 5.01.364 1.88.73 3.837 1.094 5.872.417 1.984.834 3.915 1.25 5.794.574 2.505 1.095 4.776 1.564 6.811l1.016 4.306c.26-.94.547-2.01.86-3.21l1.015-4.07c.365-1.462.73-2.976 1.095-4.542.26-1.252.547-2.505.86-3.758.312-1.304.599-2.583.859-3.836.313-1.252.6-2.479.86-3.68.312-1.252.599-2.453.86-3.6L81 2.234a78.906 78.906 0 0 1-1.563 4.384 510.589 510.589 0 0 0-1.876 5.402c-.625 1.931-1.303 4.02-2.032 6.263a626.291 626.291 0 0 1-3.36 10.57c-1.095 3.497-2.111 6.707-3.049 9.63a294.337 294.337 0 0 0-2.032 6.81l-8.832-.078c-.416-1.513-.912-3.21-1.485-5.089a302.723 302.723 0 0 0-1.72-5.95 779.92 779.92 0 0 0-1.953-6.576l-2.032-6.733a229.127 229.127 0 0 0-1.641-5.637c-.573-1.879-1.12-3.68-1.642-5.402a960.784 960.784 0 0 0-1.485-5.01c-.52-1.619-.99-3.08-1.407-4.385Z" stroke="#46295A" stroke-width="2.868" mask="url(#a)"/></svg>