<svg width="77" height="15" fill="none" xmlns="http://www.w3.org/2000/svg"><path d="M.313 13.798 5.145 1.101h2.23l4.85 12.697h-1.837l-1.195-3.146H3.237l-1.176 3.146H.313ZM3.79 9.152h4.833l-1.48-3.98c-.036-.11-.09-.265-.161-.462-.071-.197-.149-.413-.232-.648l-.25-.74c-.083-.26-.16-.494-.231-.704h-.107l-.286.852c-.107.32-.214.635-.32.944-.107.296-.197.549-.268.759L3.79 9.153ZM13.876 13.798V1.101h2.622l2.781 8.236c.072.223.143.47.214.74.084.26.155.507.214.741.072.235.125.438.16.611h.126a24.051 24.051 0 0 1 .339-1.388c.07-.26.136-.494.195-.704l2.782-8.236h2.604v12.697h-1.694v-7.44c0-.383.006-.797.017-1.24.012-.457.024-.87.036-1.241.012-.383.018-.654.018-.814h-.143c-.035.16-.095.388-.178.684-.083.284-.172.587-.268.907-.083.309-.16.587-.231.833l-2.871 8.311h-1.462l-2.871-8.31c-.071-.21-.149-.451-.232-.723a32.454 32.454 0 0 0-.232-.87 27.022 27.022 0 0 0-.214-.832h-.125c.012.271.018.61.018 1.018.012.395.018.796.018 1.203.012.395.018.753.018 1.073v7.441h-1.64ZM27.565 13.798l4.832-12.697h2.23l4.85 12.697H37.64l-1.195-3.146H30.49l-1.177 3.146h-1.748Zm3.477-4.646h4.833l-1.48-3.98c-.036-.11-.09-.265-.16-.462a115.73 115.73 0 0 1-.233-.648l-.25-.74c-.083-.26-.16-.494-.231-.704h-.107l-.285.852c-.107.32-.214.635-.321.944-.107.296-.197.549-.268.759l-1.498 3.98ZM40.166 13.798v-.907l7.418-10.273h-6.955V1.101h9.469v.907L42.662 12.28h7.596v1.517H40.166ZM57.765 14.02c-1.272 0-2.365-.24-3.28-.721-.904-.482-1.605-1.21-2.105-2.185-.487-.974-.73-2.196-.73-3.665 0-1.48.243-2.702.73-3.665.5-.974 1.2-1.702 2.104-2.184.916-.481 2.01-.722 3.281-.722 1.272 0 2.36.241 3.263.722.916.482 1.617 1.21 2.105 2.184.499.963.748 2.185.748 3.665 0 1.469-.25 2.69-.748 3.665-.488.975-1.19 1.703-2.105 2.185-.903.48-1.99.722-3.263.722Zm0-1.517c.666 0 1.266-.093 1.801-.278a3.28 3.28 0 0 0 1.373-.87c.38-.407.672-.913.874-1.518.202-.617.303-1.345.303-2.184v-.389c0-.851-.1-1.58-.303-2.184-.202-.617-.493-1.123-.874-1.518a3.2 3.2 0 0 0-1.373-.888 5.484 5.484 0 0 0-1.8-.278c-.678 0-1.285.093-1.82.278a3.347 3.347 0 0 0-1.373.888c-.38.395-.671.901-.873 1.518-.19.605-.286 1.333-.286 2.184v.39c0 .838.096 1.566.286 2.183.202.605.493 1.11.873 1.518.38.395.838.685 1.373.87.535.185 1.142.278 1.82.278ZM66.326 13.798V1.101h1.64l5.938 8.366c.06.074.137.185.232.333l.285.444c.095.136.173.26.232.37h.072V1.102h1.658v12.697h-1.551l-6.01-8.514a16.883 16.883 0 0 0-.374-.574 11.134 11.134 0 0 0-.392-.592h-.09v9.68h-1.64Z" fill="#fff"/></svg>