<svg width="94" height="94" fill="none" xmlns="http://www.w3.org/2000/svg"><path d="M8.59 29.686 6.828 27.55l-1.065 2.558A44.737 44.737 0 0 0 2.33 47.346c0 24.742 20.024 44.804 44.731 44.804s44.73-20.062 44.73-44.804c0-5.313-.923-10.413-2.62-15.145l-.957-2.67-1.87 2.133-39.136 44.65-.084.097-.035-.07-.121-.146L8.59 29.686Zm72.241-9.419 1.043-1.097-.99-1.145a45.025 45.025 0 0 0-5.832-5.63l-1.247-1.003-1.055 1.204-25.542 29.141-.084.096-.035-.069-.121-.147-24.562-29.765-1.019-1.235-1.276.966a44.988 44.988 0 0 0-4.877 4.28l-1.069 1.084.982 1.165 29.137 34.566c.488.904 1.336 1.95 2.685 2.027 1.4.08 2.32-.923 2.844-1.8L80.83 20.267ZM60.468 7.116l1.88-1.979-2.617-.773a44.462 44.462 0 0 0-7.762-1.556l-.864-.094-.573.653-3.324 3.793-.084.096-.035-.069-.121-.147L43.94 3.37l-.569-.688-.888.09c-2.372.242-4.69.669-6.938 1.267l-2.543.677 1.696 2.013 9.585 11.37c.488.904 1.336 1.951 2.685 2.028 1.4.08 2.32-.923 2.844-1.8L60.468 7.116Z" fill="#fff" stroke="#fff" stroke-width="3.339"/></svg>