<svg width="335" height="36" fill="none" xmlns="http://www.w3.org/2000/svg"><path d="M2.893 19.968H84.54c25.622 0 29.24 7.675 32.326 0 9.183-22.838 10.559-12.725 16.706 0 8.625 17.856 9.043 12.927 13.921 0 4.878-12.926 3.943-28.884 12.065-4.788 8.122 24.097 3.167 23.983 11.369 0 8.202-23.982 9.561-9.846 14.028 4.788 4.468 14.635 7.588 9.813 11.494 0 3.907-9.812 4.847-24.158 16.123 0 2.407 5.156 7.976 0 32.113 0h87.458" stroke="#858585" stroke-opacity=".6" stroke-width="4" stroke-linecap="round"/></svg>